<?xml version="1.0" encoding="UTF-8"?>
<svg xmlns="http://www.w3.org/2000/svg"
     viewBox="0 0 1400 560"
     role="img"
     aria-labelledby="title desc"
     font-family="'JetBrains Mono', 'Fira Code', 'SF Mono', 'Consolas', monospace">
  <title id="title">Part 3 cycle — alert, evidence, policy, action (dark)</title>
  <desc id="desc">
    A four-step cycle: an alert fires, the workflow gathers evidence from three
    sources (Infrahub source of truth, Prometheus metrics, Loki logs), a
    deterministic policy decides one of proceed, skip, or resolved, and the
    workflow takes an action (silence the alert, write an audit record, and
    optionally surface the decision on dashboards).
  </desc>

  <style><![CDATA[
    .bg          { fill: #0e1a1d; }
    .phase-label { font-size: 17px; font-weight: 400; fill: #7c8a91;
                   letter-spacing: 0.18em; text-transform: uppercase; }
    .box-title   { font-size: 32px; font-weight: 700; fill: #f4f6f7;
                   letter-spacing: 0.02em; }
    .box-sub     { font-size: 17px; fill: #b8c5cd; }
    .pill-text   { font-size: 17px; font-weight: 600; fill: #0e1a1d; }
    .annot       { font-size: 16px; fill: #94a3b8; }
    .footer      { font-size: 18px; fill: #7c8a91; letter-spacing: 0.05em; }
    .footer-emph { font-size: 18px; fill: #86efac; font-weight: 600;
                   letter-spacing: 0.05em; }
    .bundle-tag  { font-size: 14px; font-weight: 700; fill: #c4b5fd;
                   letter-spacing: 0.2em; }

    .box           { fill: #14252a; stroke-width: 3; }
    .box-alert     { stroke: #2dd4bf; }
    .box-evid      { stroke: #fbbf24; stroke-dasharray: 9 6; }
    .box-policy    { stroke: #22d3ee; }
    .box-action    { stroke: #e879f9; }

    .pill-sot      { fill: #86efac; }
    .pill-prom     { fill: #fbbf24; }
    .pill-loki     { fill: #fb923c; }
    .pill-silence  { fill: #f0abfc; }
    .pill-audit    { fill: #c4b5fd; }
    .pill-panel    { fill: #fda4af; }
    .pill-rca      { fill: #c7d2fe; }

    .icon          { fill: none; stroke: #0e1a1d; stroke-width: 1.7;
                     stroke-linecap: round; stroke-linejoin: round; }
    .icon-fill     { fill: #0e1a1d; }

    .arrow         { fill: none; stroke: #94a3b8; stroke-width: 2; }
  ]]></style>

  <defs>
    <marker id="ah" viewBox="0 0 10 10" refX="9" refY="5"
            markerWidth="8" markerHeight="8" orient="auto-start-reverse">
      <path d="M 0 0 L 10 5 L 0 10 z" fill="#94a3b8"/>
    </marker>

    <symbol id="ic-target" viewBox="-12 -12 24 24">
      <circle class="icon" cx="0" cy="0" r="8"/>
      <circle class="icon" cx="0" cy="0" r="4"/>
      <circle class="icon-fill" cx="0" cy="0" r="1.5"/>
    </symbol>
    <symbol id="ic-pulse" viewBox="-12 -12 24 24">
      <path class="icon" d="M -10 0 L -6 0 L -3 -7 L 1 7 L 4 -3 L 6 0 L 10 0"/>
    </symbol>
    <symbol id="ic-log" viewBox="-12 -12 24 24">
      <line class="icon" x1="-9" y1="-5" x2="9" y2="-5"/>
      <line class="icon" x1="-9" y1="0" x2="6" y2="0"/>
      <line class="icon" x1="-9" y1="5" x2="9" y2="5"/>
    </symbol>
    <symbol id="ic-silence" viewBox="-12 -12 24 24">
      <path class="icon" d="M -6 -2 Q -6 -8 0 -8 Q 6 -8 6 -2 L 7 2 L -7 2 Z"/>
      <line class="icon" x1="-1.5" y1="2" x2="-1.5" y2="5"/>
      <line class="icon" x1="1.5" y1="2" x2="1.5" y2="5"/>
      <line class="icon" x1="-10" y1="-10" x2="10" y2="9" stroke-width="2.2"/>
    </symbol>
    <symbol id="ic-doc" viewBox="-12 -12 24 24">
      <path class="icon" d="M -6 -8 L 4 -8 L 7 -5 L 7 8 L -6 8 Z"/>
      <line class="icon" x1="-3" y1="-2" x2="4" y2="-2"/>
      <line class="icon" x1="-3" y1="2" x2="4" y2="2"/>
      <line class="icon" x1="-3" y1="5" x2="1" y2="5"/>
    </symbol>
    <symbol id="ic-chartmark" viewBox="-12 -12 24 24">
      <polyline class="icon" points="-9,4 -5,-1 -1,2 3,-4 9,-1"/>
      <line class="icon" x1="3" y1="-9" x2="3" y2="8" stroke-dasharray="2 2"/>
    </symbol>
    <symbol id="ic-sparkle" viewBox="-12 -12 24 24">
      <path class="icon" d="M 0 -9 L 2 -2 L 9 0 L 2 2 L 0 9 L -2 2 L -9 0 L -2 -2 Z"/>
    </symbol>
  </defs>

  <rect class="bg" x="0" y="0" width="1400" height="560" rx="0"/>

  <!-- Orchestration (Prefect) wrapper — visually groups phases 2-4 inside Prefect -->
  <rect x="325" y="135" width="1045" height="300" rx="14"
        fill="none" stroke="#7c8a91" stroke-width="2"
        stroke-dasharray="9 6" opacity="0.6"/>
  <text x="848" y="122" class="phase-label" text-anchor="middle">Orchestration · Prefect</text>

  <text x="170"  y="60" class="phase-label" text-anchor="middle">1 · alert fires</text>
  <text x="560"  y="60" class="phase-label" text-anchor="middle">2 · gather evidence</text>
  <text x="955"  y="60" class="phase-label" text-anchor="middle">3 · decide</text>
  <text x="1245" y="60" class="phase-label" text-anchor="middle">4 · act</text>

  <!-- Phase 1 -->
  <rect class="box box-alert" x="60" y="180" width="220" height="160" rx="14"/>
  <text x="170" y="240" class="box-title" text-anchor="middle">ALERT</text>
  <text x="170" y="275" class="box-sub"   text-anchor="middle">BgpSessionNotUp</text>
  <text x="170" y="298" class="box-sub"   text-anchor="middle">srl1 → 10.1.99.2</text>
  <text x="170" y="321" class="box-sub"   text-anchor="middle" font-style="italic" fill="#7c8a91">Alertmanager</text>

  <line class="arrow" x1="285" y1="260" x2="345" y2="260" marker-end="url(#ah)"/>

  <!-- Phase 2 — dashed amber border with "EVIDENCE BUNDLE" tab -->
  <rect class="box box-evid" x="350" y="160" width="420" height="220" rx="14"/>
  <text x="560" y="210" class="box-title" text-anchor="middle">EVIDENCE</text>

  <rect x="460" y="148" width="200" height="22" rx="4" fill="#1a1530"/>
  <text x="560" y="164" class="bundle-tag" text-anchor="middle">EVIDENCE BUNDLE</text>

  <g>
    <rect class="pill-sot" x="385" y="240" width="350" height="34" rx="8"/>
    <use href="#ic-target" x="395" y="247" width="20" height="20"/>
    <text x="570" y="262" class="pill-text" text-anchor="middle">Infrahub  ·  what should be true</text>
  </g>
  <g>
    <rect class="pill-prom" x="385" y="282" width="350" height="34" rx="8"/>
    <use href="#ic-pulse" x="395" y="289" width="20" height="20"/>
    <text x="570" y="304" class="pill-text" text-anchor="middle">Prometheus  ·  what is true</text>
  </g>
  <g>
    <rect class="pill-loki" x="385" y="324" width="350" height="34" rx="8"/>
    <use href="#ic-log" x="395" y="331" width="20" height="20"/>
    <text x="570" y="346" class="pill-text" text-anchor="middle">Loki  ·  what just happened</text>
  </g>

  <line class="arrow" x1="780" y1="260" x2="840" y2="260" marker-end="url(#ah)"/>

  <!-- Phase 3 -->
  <rect class="box box-policy" x="845" y="180" width="220" height="160" rx="14"/>
  <text x="955" y="240" class="box-title" text-anchor="middle">POLICY</text>
  <text x="955" y="278" class="box-sub" text-anchor="middle">proceed</text>
  <text x="955" y="301" class="box-sub" text-anchor="middle">skip</text>
  <text x="955" y="324" class="box-sub" text-anchor="middle">resolved</text>

  <line class="arrow" x1="1070" y1="260" x2="1130" y2="260" marker-end="url(#ah)"/>

  <!-- Phase 4 -->
  <rect class="box box-action" x="1135" y="160" width="220" height="220" rx="14"/>
  <text x="1245" y="210" class="box-title" text-anchor="middle">ACTION</text>

  <g>
    <rect class="pill-silence" x="1155" y="240" width="180" height="34" rx="8"/>
    <use href="#ic-silence" x="1165" y="247" width="20" height="20"/>
    <text x="1257" y="262" class="pill-text" text-anchor="middle">silence (20m)</text>
  </g>
  <g>
    <rect class="pill-audit" x="1155" y="282" width="180" height="34" rx="8"/>
    <use href="#ic-doc" x="1165" y="289" width="20" height="20"/>
    <text x="1257" y="304" class="pill-text" text-anchor="middle">action audit</text>
  </g>
  <g>
    <rect class="pill-rca" x="1155" y="324" width="180" height="34" rx="8"/>
    <use href="#ic-sparkle" x="1165" y="331" width="20" height="20"/>
    <text x="1257" y="346" class="pill-text" text-anchor="middle">AI narrative</text>
  </g>

  <text x="170"  y="385" class="annot" text-anchor="middle">one trigger</text>
  <text x="560"  y="405" class="annot" text-anchor="middle">three sources, one bundle</text>
  <text x="955"  y="385" class="annot" text-anchor="middle">deterministic rule</text>
  <text x="1245" y="405" class="annot" text-anchor="middle">silence · audit · narrative</text>

  <text x="700" y="485" class="footer" text-anchor="middle">
    one alert  ·  one decision per alert  ·  <tspan class="footer-emph">one record of why</tspan>
  </text>
  <text x="700" y="515" class="footer" text-anchor="middle" font-style="italic">
    same shape for every alert your team writes
  </text>
</svg>
